<mxfile host="app.diagrams.net" modified="2024-04-17T00:45:27.403Z" agent="Mozilla/5.0 (Macintosh; Intel Mac OS X 10_15_7) AppleWebKit/537.36 (KHTML, like Gecko) Chrome/123.0.0.0 Safari/537.36" etag="wwdZYXzIzkx_H_jrB7JV" version="24.2.3" type="github">
  <diagram name="第 1 页" id="q8hEzm-3ZmMBjOJgn9qx">
    <mxGraphModel dx="1434" dy="761" grid="1" gridSize="10" guides="1" tooltips="1" connect="1" arrows="1" fold="1" page="1" pageScale="1" pageWidth="3300" pageHeight="4681" math="0" shadow="0">
      <root>
        <mxCell id="0" />
        <mxCell id="1" parent="0" />
        <mxCell id="KOqdbeGSPdCPdFGqDDnY-3" value="业务应用" style="rounded=0;whiteSpace=wrap;html=1;verticalAlign=top;" vertex="1" parent="1">
          <mxGeometry x="330" y="240" width="770" height="170" as="geometry" />
        </mxCell>
        <mxCell id="KOqdbeGSPdCPdFGqDDnY-4" value="学生公寓" style="rounded=0;whiteSpace=wrap;html=1;" vertex="1" parent="1">
          <mxGeometry x="350" y="305" width="80" height="40" as="geometry" />
        </mxCell>
      </root>
    </mxGraphModel>
  </diagram>
</mxfile>
